solid add_sensor_1mm
   facet normal 0.000000e+00 -1.000000e+00 0.000000e+00
      outer loop
         vertex 0.000000e+00 8.662955e-03 1.757458e-03
         vertex 4.000000e-03 8.662955e-03 1.757458e-03
         vertex 0.000000e+00 8.662955e-03 1.257575e-01
      endloop
   endfacet
   facet normal 0.000000e+00 -1.000000e+00 0.000000e+00
      outer loop
         vertex 0.000000e+00 8.662955e-03 1.257575e-01
         vertex 4.000000e-03 8.662955e-03 1.757458e-03
         vertex 4.000000e-03 8.662955e-03 1.257575e-01
      endloop
   endfacet
   facet normal 0.000000e+00 0.000000e+00 -1.000000e+00
      outer loop
         vertex 0.000000e+00 3.166295e-02 1.757458e-03
         vertex 4.000000e-03 3.166295e-02 1.757458e-03
         vertex 0.000000e+00 8.662955e-03 1.757458e-03
      endloop
   endfacet
   facet normal 0.000000e+00 0.000000e+00 -1.000000e+00
      outer loop
         vertex 0.000000e+00 8.662955e-03 1.757458e-03
         vertex 4.000000e-03 3.166295e-02 1.757458e-03
         vertex 4.000000e-03 8.662955e-03 1.757458e-03
      endloop
   endfacet
   facet normal -0.000000e+00 1.000000e+00 0.000000e+00
      outer loop
         vertex 0.000000e+00 3.166295e-02 1.257575e-01
         vertex 4.000000e-03 3.166295e-02 1.257575e-01
         vertex 0.000000e+00 3.166295e-02 1.757458e-03
      endloop
   endfacet
   facet normal 0.000000e+00 1.000000e+00 0.000000e+00
      outer loop
         vertex 0.000000e+00 3.166295e-02 1.757458e-03
         vertex 4.000000e-03 3.166295e-02 1.257575e-01
         vertex 4.000000e-03 3.166295e-02 1.757458e-03
      endloop
   endfacet
   facet normal 0.000000e+00 0.000000e+00 1.000000e+00
      outer loop
         vertex 0.000000e+00 8.662955e-03 1.257575e-01
         vertex 4.000000e-03 8.662955e-03 1.257575e-01
         vertex 0.000000e+00 3.166295e-02 1.257575e-01
      endloop
   endfacet
   facet normal -0.000000e+00 0.000000e+00 1.000000e+00
      outer loop
         vertex 0.000000e+00 3.166295e-02 1.257575e-01
         vertex 4.000000e-03 8.662955e-03 1.257575e-01
         vertex 4.000000e-03 3.166295e-02 1.257575e-01
      endloop
   endfacet
   facet normal 1.000000e+00 0.000000e+00 -0.000000e+00
      outer loop
         vertex 4.000000e-03 3.166295e-02 1.757458e-03
         vertex 4.000000e-03 3.166295e-02 1.257575e-01
         vertex 4.000000e-03 8.662955e-03 1.757458e-03
      endloop
   endfacet
   facet normal 1.000000e+00 0.000000e+00 0.000000e+00
      outer loop
         vertex 4.000000e-03 8.662955e-03 1.757458e-03
         vertex 4.000000e-03 3.166295e-02 1.257575e-01
         vertex 4.000000e-03 8.662955e-03 1.257575e-01
      endloop
   endfacet
   facet normal -0.000000e+00 0.000000e+00 1.000000e+00
      outer loop
         vertex 0.000000e+00 2.966295e-02 4.757456e-03
         vertex 0.000000e+00 1.066296e-02 4.757456e-03
         vertex 1.000000e-03 2.966295e-02 4.757456e-03
      endloop
   endfacet
   facet normal 0.000000e+00 0.000000e+00 1.000000e+00
      outer loop
         vertex 1.000000e-03 2.966295e-02 4.757456e-03
         vertex 0.000000e+00 1.066296e-02 4.757456e-03
         vertex 1.000000e-03 1.066296e-02 4.757456e-03
      endloop
   endfacet
   facet normal 0.000000e+00 -1.000000e+00 0.000000e+00
      outer loop
         vertex 0.000000e+00 2.966295e-02 1.227575e-01
         vertex 0.000000e+00 2.966295e-02 4.757456e-03
         vertex 1.000000e-03 2.966295e-02 1.227575e-01
      endloop
   endfacet
   facet normal 0.000000e+00 -1.000000e+00 -0.000000e+00
      outer loop
         vertex 1.000000e-03 2.966295e-02 1.227575e-01
         vertex 0.000000e+00 2.966295e-02 4.757456e-03
         vertex 1.000000e-03 2.966295e-02 4.757456e-03
      endloop
   endfacet
   facet normal 0.000000e+00 0.000000e+00 -1.000000e+00
      outer loop
         vertex 0.000000e+00 1.066296e-02 1.227575e-01
         vertex 0.000000e+00 2.966295e-02 1.227575e-01
         vertex 1.000000e-03 1.066296e-02 1.227575e-01
      endloop
   endfacet
   facet normal 0.000000e+00 0.000000e+00 -1.000000e+00
      outer loop
         vertex 1.000000e-03 1.066296e-02 1.227575e-01
         vertex 0.000000e+00 2.966295e-02 1.227575e-01
         vertex 1.000000e-03 2.966295e-02 1.227575e-01
      endloop
   endfacet
   facet normal 0.000000e+00 1.000000e+00 0.000000e+00
      outer loop
         vertex 0.000000e+00 1.066296e-02 4.757456e-03
         vertex 0.000000e+00 1.066296e-02 1.227575e-01
         vertex 1.000000e-03 1.066296e-02 4.757456e-03
      endloop
   endfacet
   facet normal 0.000000e+00 1.000000e+00 -0.000000e+00
      outer loop
         vertex 1.000000e-03 1.066296e-02 4.757456e-03
         vertex 0.000000e+00 1.066296e-02 1.227575e-01
         vertex 1.000000e-03 1.066296e-02 1.227575e-01
      endloop
   endfacet
   facet normal -1.000000e+00 -0.000000e+00 0.000000e+00
      outer loop
         vertex 0.000000e+00 1.066296e-02 4.757456e-03
         vertex 0.000000e+00 8.662955e-03 1.757458e-03
         vertex 0.000000e+00 1.066296e-02 1.227575e-01
      endloop
   endfacet
   facet normal -1.000000e+00 -0.000000e+00 0.000000e+00
      outer loop
         vertex 0.000000e+00 1.066296e-02 1.227575e-01
         vertex 0.000000e+00 8.662955e-03 1.757458e-03
         vertex 0.000000e+00 8.662955e-03 1.257575e-01
      endloop
   endfacet
   facet normal -1.000000e+00 0.000000e+00 0.000000e+00
      outer loop
         vertex 0.000000e+00 1.066296e-02 1.227575e-01
         vertex 0.000000e+00 8.662955e-03 1.257575e-01
         vertex 0.000000e+00 2.966295e-02 1.227575e-01
      endloop
   endfacet
   facet normal -1.000000e+00 0.000000e+00 0.000000e+00
      outer loop
         vertex 0.000000e+00 2.966295e-02 1.227575e-01
         vertex 0.000000e+00 8.662955e-03 1.257575e-01
         vertex 0.000000e+00 3.166295e-02 1.257575e-01
      endloop
   endfacet
   facet normal -1.000000e+00 0.000000e+00 0.000000e+00
      outer loop
         vertex 0.000000e+00 2.966295e-02 1.227575e-01
         vertex 0.000000e+00 3.166295e-02 1.257575e-01
         vertex 0.000000e+00 2.966295e-02 4.757456e-03
      endloop
   endfacet
   facet normal -1.000000e+00 0.000000e+00 0.000000e+00
      outer loop
         vertex 0.000000e+00 2.966295e-02 4.757456e-03
         vertex 0.000000e+00 3.166295e-02 1.257575e-01
         vertex 0.000000e+00 3.166295e-02 1.757458e-03
      endloop
   endfacet
   facet normal -1.000000e+00 -0.000000e+00 -0.000000e+00
      outer loop
         vertex 0.000000e+00 2.966295e-02 4.757456e-03
         vertex 0.000000e+00 3.166295e-02 1.757458e-03
         vertex 0.000000e+00 1.066296e-02 4.757456e-03
      endloop
   endfacet
   facet normal -1.000000e+00 0.000000e+00 -0.000000e+00
      outer loop
         vertex 0.000000e+00 1.066296e-02 4.757456e-03
         vertex 0.000000e+00 3.166295e-02 1.757458e-03
         vertex 0.000000e+00 8.662955e-03 1.757458e-03
      endloop
   endfacet
   facet normal -1.000000e+00 0.000000e+00 0.000000e+00
      outer loop
         vertex 1.000000e-03 1.066296e-02 1.227575e-01
         vertex 1.000000e-03 2.966295e-02 1.227575e-01
         vertex 1.000000e-03 1.066296e-02 4.757456e-03
      endloop
   endfacet
   facet normal -1.000000e+00 0.000000e+00 0.000000e+00
      outer loop
         vertex 1.000000e-03 1.066296e-02 4.757456e-03
         vertex 1.000000e-03 2.966295e-02 1.227575e-01
         vertex 1.000000e-03 2.966295e-02 4.757456e-03
      endloop
   endfacet
endsolid