solid 后处理_v6_触觉阵列
   facet normal 0.000000e+00 -1.000000e+00 -0.000000e+00
      outer loop
         vertex 5.000000e-03 1.500000e-02 4.550000e-02
         vertex 5.000000e-03 1.500000e-02 4.400000e-02
         vertex 8.000000e-03 1.500000e-02 4.400000e-02
      endloop
   endfacet
   facet normal 0.000000e+00 -1.000000e+00 0.000000e+00
      outer loop
         vertex 8.000000e-03 1.500000e-02 0.000000e+00
         vertex 8.000000e-03 1.500000e-02 3.399999e-02
         vertex 5.000000e-03 1.500000e-02 3.250000e-02
      endloop
   endfacet
   facet normal 0.000000e+00 -1.000000e+00 0.000000e+00
      outer loop
         vertex 5.000000e-03 1.500000e-02 3.250000e-02
         vertex 8.000000e-03 1.500000e-02 3.399999e-02
         vertex 5.000000e-03 1.500000e-02 3.399999e-02
      endloop
   endfacet
   facet normal 0.000000e+00 -1.000000e+00 0.000000e+00
      outer loop
         vertex 5.000000e-03 1.500000e-02 8.400000e-02
         vertex 8.000000e-03 1.500000e-02 8.400000e-02
         vertex 5.000000e-03 1.500000e-02 8.550000e-02
      endloop
   endfacet
   facet normal 0.000000e+00 -1.000000e+00 0.000000e+00
      outer loop
         vertex 5.000000e-03 1.500000e-02 8.550000e-02
         vertex 8.000000e-03 1.500000e-02 8.400000e-02
         vertex 8.000000e-03 1.500000e-02 1.050000e-01
      endloop
   endfacet
   facet normal 0.000000e+00 -1.000000e+00 0.000000e+00
      outer loop
         vertex 5.000000e-03 1.500000e-02 8.550000e-02
         vertex 8.000000e-03 1.500000e-02 1.050000e-01
         vertex 4.000000e-03 1.500000e-02 8.550000e-02
      endloop
   endfacet
   facet normal 0.000000e+00 -1.000000e+00 0.000000e+00
      outer loop
         vertex 4.000000e-03 1.500000e-02 8.550000e-02
         vertex 8.000000e-03 1.500000e-02 1.050000e-01
         vertex 0.000000e+00 1.500000e-02 1.050000e-01
      endloop
   endfacet
   facet normal -0.000000e+00 -1.000000e+00 -0.000000e+00
      outer loop
         vertex 4.000000e-03 1.500000e-02 8.550000e-02
         vertex 0.000000e+00 1.500000e-02 1.050000e-01
         vertex 4.000000e-03 1.500000e-02 7.250000e-02
      endloop
   endfacet
   facet normal 0.000000e+00 -1.000000e+00 0.000000e+00
      outer loop
         vertex 8.000000e-03 1.500000e-02 0.000000e+00
         vertex 5.000000e-03 1.500000e-02 3.250000e-02
         vertex 0.000000e+00 1.500000e-02 0.000000e+00
      endloop
   endfacet
   facet normal 0.000000e+00 -1.000000e+00 0.000000e+00
      outer loop
         vertex 0.000000e+00 1.500000e-02 0.000000e+00
         vertex 5.000000e-03 1.500000e-02 3.250000e-02
         vertex 4.000000e-03 1.500000e-02 3.250000e-02
      endloop
   endfacet
   facet normal 0.000000e+00 -1.000000e+00 0.000000e+00
      outer loop
         vertex 0.000000e+00 1.500000e-02 0.000000e+00
         vertex 4.000000e-03 1.500000e-02 3.250000e-02
         vertex 4.000000e-03 1.500000e-02 4.550000e-02
      endloop
   endfacet
   facet normal -0.000000e+00 -1.000000e+00 0.000000e+00
      outer loop
         vertex 8.000000e-03 1.500000e-02 7.400000e-02
         vertex 5.000000e-03 1.500000e-02 7.400000e-02
         vertex 5.000000e-03 1.500000e-02 7.250000e-02
      endloop
   endfacet
   facet normal 0.000000e+00 -1.000000e+00 0.000000e+00
      outer loop
         vertex 0.000000e+00 1.500000e-02 1.050000e-01
         vertex 0.000000e+00 1.500000e-02 0.000000e+00
         vertex 4.000000e-03 1.500000e-02 7.250000e-02
      endloop
   endfacet
   facet normal 0.000000e+00 -1.000000e+00 -0.000000e+00
      outer loop
         vertex 4.000000e-03 1.500000e-02 7.250000e-02
         vertex 0.000000e+00 1.500000e-02 0.000000e+00
         vertex 4.000000e-03 1.500000e-02 4.550000e-02
      endloop
   endfacet
   facet normal 0.000000e+00 -1.000000e+00 0.000000e+00
      outer loop
         vertex 4.000000e-03 1.500000e-02 7.250000e-02
         vertex 4.000000e-03 1.500000e-02 4.550000e-02
         vertex 5.000000e-03 1.500000e-02 7.250000e-02
      endloop
   endfacet
   facet normal 0.000000e+00 -1.000000e+00 -0.000000e+00
      outer loop
         vertex 5.000000e-03 1.500000e-02 7.250000e-02
         vertex 4.000000e-03 1.500000e-02 4.550000e-02
         vertex 5.000000e-03 1.500000e-02 4.550000e-02
      endloop
   endfacet
   facet normal 0.000000e+00 -1.000000e+00 0.000000e+00
      outer loop
         vertex 5.000000e-03 1.500000e-02 7.250000e-02
         vertex 5.000000e-03 1.500000e-02 4.550000e-02
         vertex 8.000000e-03 1.500000e-02 7.400000e-02
      endloop
   endfacet
   facet normal 0.000000e+00 -1.000000e+00 -0.000000e+00
      outer loop
         vertex 8.000000e-03 1.500000e-02 7.400000e-02
         vertex 5.000000e-03 1.500000e-02 4.550000e-02
         vertex 8.000000e-03 1.500000e-02 4.400000e-02
      endloop
   endfacet
   facet normal 0.000000e+00 0.000000e+00 -1.000000e+00
      outer loop
         vertex 0.000000e+00 3.800000e-02 0.000000e+00
         vertex 8.000000e-03 3.800000e-02 0.000000e+00
         vertex 0.000000e+00 1.500000e-02 0.000000e+00
      endloop
   endfacet
   facet normal 0.000000e+00 0.000000e+00 -1.000000e+00
      outer loop
         vertex 0.000000e+00 1.500000e-02 0.000000e+00
         vertex 8.000000e-03 3.800000e-02 0.000000e+00
         vertex 8.000000e-03 1.500000e-02 0.000000e+00
      endloop
   endfacet
   facet normal 0.000000e+00 1.000000e+00 0.000000e+00
      outer loop
         vertex 4.000000e-03 3.800000e-02 7.250000e-02
         vertex 0.000000e+00 3.800000e-02 0.000000e+00
         vertex 0.000000e+00 3.800000e-02 1.050000e-01
      endloop
   endfacet
   facet normal 0.000000e+00 1.000000e+00 0.000000e+00
      outer loop
         vertex 8.000000e-03 3.800000e-02 1.050000e-01
         vertex 8.000000e-03 3.800000e-02 8.400000e-02
         vertex 5.000000e-03 3.800000e-02 8.550000e-02
      endloop
   endfacet
   facet normal 0.000000e+00 1.000000e+00 0.000000e+00
      outer loop
         vertex 5.000000e-03 3.800000e-02 8.550000e-02
         vertex 8.000000e-03 3.800000e-02 8.400000e-02
         vertex 5.000000e-03 3.800000e-02 8.400000e-02
      endloop
   endfacet
   facet normal 0.000000e+00 1.000000e+00 0.000000e+00
      outer loop
         vertex 8.000000e-03 3.800000e-02 7.400000e-02
         vertex 8.000000e-03 3.800000e-02 4.400000e-02
         vertex 5.000000e-03 3.800000e-02 4.550000e-02
      endloop
   endfacet
   facet normal 0.000000e+00 1.000000e+00 0.000000e+00
      outer loop
         vertex 5.000000e-03 3.800000e-02 4.550000e-02
         vertex 8.000000e-03 3.800000e-02 4.400000e-02
         vertex 5.000000e-03 3.800000e-02 4.400000e-02
      endloop
   endfacet
   facet normal 0.000000e+00 1.000000e+00 0.000000e+00
      outer loop
         vertex 8.000000e-03 3.800000e-02 1.050000e-01
         vertex 5.000000e-03 3.800000e-02 8.550000e-02
         vertex 0.000000e+00 3.800000e-02 1.050000e-01
      endloop
   endfacet
   facet normal 0.000000e+00 1.000000e+00 0.000000e+00
      outer loop
         vertex 0.000000e+00 3.800000e-02 1.050000e-01
         vertex 5.000000e-03 3.800000e-02 8.550000e-02
         vertex 4.000000e-03 3.800000e-02 8.550000e-02
      endloop
   endfacet
   facet normal 0.000000e+00 1.000000e+00 0.000000e+00
      outer loop
         vertex 0.000000e+00 3.800000e-02 1.050000e-01
         vertex 4.000000e-03 3.800000e-02 8.550000e-02
         vertex 4.000000e-03 3.800000e-02 7.250000e-02
      endloop
   endfacet
   facet normal -0.000000e+00 1.000000e+00 0.000000e+00
      outer loop
         vertex 5.000000e-03 3.800000e-02 3.399999e-02
         vertex 8.000000e-03 3.800000e-02 3.399999e-02
         vertex 5.000000e-03 3.800000e-02 3.250000e-02
      endloop
   endfacet
   facet normal -0.000000e+00 1.000000e+00 0.000000e+00
      outer loop
         vertex 5.000000e-03 3.800000e-02 3.250000e-02
         vertex 8.000000e-03 3.800000e-02 3.399999e-02
         vertex 8.000000e-03 3.800000e-02 0.000000e+00
      endloop
   endfacet
   facet normal 0.000000e+00 1.000000e+00 0.000000e+00
      outer loop
         vertex 5.000000e-03 3.800000e-02 3.250000e-02
         vertex 8.000000e-03 3.800000e-02 0.000000e+00
         vertex 4.000000e-03 3.800000e-02 3.250000e-02
      endloop
   endfacet
   facet normal 0.000000e+00 1.000000e+00 0.000000e+00
      outer loop
         vertex 4.000000e-03 3.800000e-02 3.250000e-02
         vertex 8.000000e-03 3.800000e-02 0.000000e+00
         vertex 0.000000e+00 3.800000e-02 0.000000e+00
      endloop
   endfacet
   facet normal 0.000000e+00 1.000000e+00 -0.000000e+00
      outer loop
         vertex 4.000000e-03 3.800000e-02 3.250000e-02
         vertex 0.000000e+00 3.800000e-02 0.000000e+00
         vertex 4.000000e-03 3.800000e-02 4.550000e-02
      endloop
   endfacet
   facet normal 0.000000e+00 1.000000e+00 -0.000000e+00
      outer loop
         vertex 4.000000e-03 3.800000e-02 4.550000e-02
         vertex 0.000000e+00 3.800000e-02 0.000000e+00
         vertex 4.000000e-03 3.800000e-02 7.250000e-02
      endloop
   endfacet
   facet normal 0.000000e+00 1.000000e+00 0.000000e+00
      outer loop
         vertex 4.000000e-03 3.800000e-02 4.550000e-02
         vertex 4.000000e-03 3.800000e-02 7.250000e-02
         vertex 5.000000e-03 3.800000e-02 4.550000e-02
      endloop
   endfacet
   facet normal 0.000000e+00 1.000000e+00 0.000000e+00
      outer loop
         vertex 5.000000e-03 3.800000e-02 4.550000e-02
         vertex 4.000000e-03 3.800000e-02 7.250000e-02
         vertex 5.000000e-03 3.800000e-02 7.250000e-02
      endloop
   endfacet
   facet normal 0.000000e+00 1.000000e+00 -0.000000e+00
      outer loop
         vertex 5.000000e-03 3.800000e-02 4.550000e-02
         vertex 5.000000e-03 3.800000e-02 7.250000e-02
         vertex 8.000000e-03 3.800000e-02 7.400000e-02
      endloop
   endfacet
   facet normal 0.000000e+00 1.000000e+00 0.000000e+00
      outer loop
         vertex 8.000000e-03 3.800000e-02 7.400000e-02
         vertex 5.000000e-03 3.800000e-02 7.250000e-02
         vertex 5.000000e-03 3.800000e-02 7.400000e-02
      endloop
   endfacet
   facet normal 0.000000e+00 0.000000e+00 1.000000e+00
      outer loop
         vertex 0.000000e+00 1.500000e-02 1.050000e-01
         vertex 8.000000e-03 1.500000e-02 1.050000e-01
         vertex 0.000000e+00 3.800000e-02 1.050000e-01
      endloop
   endfacet
   facet normal -0.000000e+00 0.000000e+00 1.000000e+00
      outer loop
         vertex 0.000000e+00 3.800000e-02 1.050000e-01
         vertex 8.000000e-03 1.500000e-02 1.050000e-01
         vertex 8.000000e-03 3.800000e-02 1.050000e-01
      endloop
   endfacet
   facet normal 1.000000e+00 -0.000000e+00 0.000000e+00
      outer loop
         vertex 8.000000e-03 1.500000e-02 4.400000e-02
         vertex 8.000000e-03 3.800000e-02 0.000000e+00
         vertex 8.000000e-03 1.500000e-02 7.400000e-02
      endloop
   endfacet
   facet normal 1.000000e+00 0.000000e+00 0.000000e+00
      outer loop
         vertex 8.000000e-03 1.500000e-02 7.400000e-02
         vertex 8.000000e-03 3.800000e-02 0.000000e+00
         vertex 8.000000e-03 3.800000e-02 3.399999e-02
      endloop
   endfacet
   facet normal 1.000000e+00 0.000000e+00 0.000000e+00
      outer loop
         vertex 8.000000e-03 1.500000e-02 0.000000e+00
         vertex 8.000000e-03 3.800000e-02 0.000000e+00
         vertex 8.000000e-03 1.500000e-02 3.399999e-02
      endloop
   endfacet
   facet normal 1.000000e+00 -0.000000e+00 0.000000e+00
      outer loop
         vertex 8.000000e-03 1.500000e-02 3.399999e-02
         vertex 8.000000e-03 3.800000e-02 0.000000e+00
         vertex 8.000000e-03 1.500000e-02 4.400000e-02
      endloop
   endfacet
   facet normal 1.000000e+00 0.000000e+00 -0.000000e+00
      outer loop
         vertex 8.000000e-03 1.500000e-02 3.399999e-02
         vertex 8.000000e-03 1.500000e-02 4.400000e-02
         vertex 8.000000e-03 0.000000e+00 3.399999e-02
      endloop
   endfacet
   facet normal 1.000000e+00 0.000000e+00 0.000000e+00
      outer loop
         vertex 8.000000e-03 0.000000e+00 3.399999e-02
         vertex 8.000000e-03 1.500000e-02 4.400000e-02
         vertex 8.000000e-03 0.000000e+00 4.400000e-02
      endloop
   endfacet
   facet normal 1.000000e+00 0.000000e+00 0.000000e+00
      outer loop
         vertex 8.000000e-03 3.800000e-02 7.400000e-02
         vertex 8.000000e-03 1.500000e-02 1.050000e-01
         vertex 8.000000e-03 3.800000e-02 4.400000e-02
      endloop
   endfacet
   facet normal 1.000000e+00 0.000000e+00 0.000000e+00
      outer loop
         vertex 8.000000e-03 3.800000e-02 4.400000e-02
         vertex 8.000000e-03 1.500000e-02 1.050000e-01
         vertex 8.000000e-03 1.500000e-02 8.400000e-02
      endloop
   endfacet
   facet normal 1.000000e+00 0.000000e+00 0.000000e+00
      outer loop
         vertex 8.000000e-03 3.800000e-02 1.050000e-01
         vertex 8.000000e-03 1.500000e-02 1.050000e-01
         vertex 8.000000e-03 3.800000e-02 8.400000e-02
      endloop
   endfacet
   facet normal 1.000000e+00 0.000000e+00 0.000000e+00
      outer loop
         vertex 8.000000e-03 3.800000e-02 8.400000e-02
         vertex 8.000000e-03 1.500000e-02 1.050000e-01
         vertex 8.000000e-03 3.800000e-02 7.400000e-02
      endloop
   endfacet
   facet normal 1.000000e+00 -0.000000e+00 0.000000e+00
      outer loop
         vertex 8.000000e-03 3.800000e-02 8.400000e-02
         vertex 8.000000e-03 3.800000e-02 7.400000e-02
         vertex 8.000000e-03 5.300000e-02 8.400000e-02
      endloop
   endfacet
   facet normal 1.000000e+00 0.000000e+00 0.000000e+00
      outer loop
         vertex 8.000000e-03 5.300000e-02 8.400000e-02
         vertex 8.000000e-03 3.800000e-02 7.400000e-02
         vertex 8.000000e-03 5.300000e-02 7.400000e-02
      endloop
   endfacet
   facet normal 1.000000e+00 0.000000e+00 -0.000000e+00
      outer loop
         vertex 8.000000e-03 5.300000e-02 3.399999e-02
         vertex 8.000000e-03 5.300000e-02 4.400000e-02
         vertex 8.000000e-03 3.800000e-02 3.399999e-02
      endloop
   endfacet
   facet normal 1.000000e+00 0.000000e+00 0.000000e+00
      outer loop
         vertex 8.000000e-03 3.800000e-02 3.399999e-02
         vertex 8.000000e-03 5.300000e-02 4.400000e-02
         vertex 8.000000e-03 3.800000e-02 4.400000e-02
      endloop
   endfacet
   facet normal 1.000000e+00 0.000000e+00 -0.000000e+00
      outer loop
         vertex 8.000000e-03 3.800000e-02 3.399999e-02
         vertex 8.000000e-03 3.800000e-02 4.400000e-02
         vertex 8.000000e-03 1.500000e-02 7.400000e-02
      endloop
   endfacet
   facet normal 1.000000e+00 -0.000000e+00 0.000000e+00
      outer loop
         vertex 8.000000e-03 1.500000e-02 7.400000e-02
         vertex 8.000000e-03 3.800000e-02 4.400000e-02
         vertex 8.000000e-03 1.500000e-02 8.400000e-02
      endloop
   endfacet
   facet normal 1.000000e+00 0.000000e+00 -0.000000e+00
      outer loop
         vertex 8.000000e-03 1.500000e-02 7.400000e-02
         vertex 8.000000e-03 1.500000e-02 8.400000e-02
         vertex 8.000000e-03 0.000000e+00 7.400000e-02
      endloop
   endfacet
   facet normal 1.000000e+00 0.000000e+00 0.000000e+00
      outer loop
         vertex 8.000000e-03 0.000000e+00 7.400000e-02
         vertex 8.000000e-03 1.500000e-02 8.400000e-02
         vertex 8.000000e-03 0.000000e+00 8.400000e-02
      endloop
   endfacet
   facet normal -0.000000e+00 0.000000e+00 1.000000e+00
      outer loop
         vertex 0.000000e+00 3.600000e-02 2.999999e-03
         vertex 0.000000e+00 1.700000e-02 2.999999e-03
         vertex 5.000000e-03 3.600000e-02 2.999999e-03
      endloop
   endfacet
   facet normal 0.000000e+00 0.000000e+00 1.000000e+00
      outer loop
         vertex 5.000000e-03 3.600000e-02 2.999999e-03
         vertex 0.000000e+00 1.700000e-02 2.999999e-03
         vertex 5.000000e-03 1.700000e-02 2.999999e-03
      endloop
   endfacet
   facet normal 0.000000e+00 -1.000000e+00 0.000000e+00
      outer loop
         vertex 5.000000e-03 3.600000e-02 8.550000e-02
         vertex 5.000000e-03 3.600000e-02 1.020000e-01
         vertex 4.000000e-03 3.600000e-02 8.550000e-02
      endloop
   endfacet
   facet normal 0.000000e+00 -1.000000e+00 0.000000e+00
      outer loop
         vertex 4.000000e-03 3.600000e-02 8.550000e-02
         vertex 5.000000e-03 3.600000e-02 1.020000e-01
         vertex 0.000000e+00 3.600000e-02 1.020000e-01
      endloop
   endfacet
   facet normal -0.000000e+00 -1.000000e+00 -0.000000e+00
      outer loop
         vertex 4.000000e-03 3.600000e-02 8.550000e-02
         vertex 0.000000e+00 3.600000e-02 1.020000e-01
         vertex 4.000000e-03 3.600000e-02 7.250000e-02
      endloop
   endfacet
   facet normal 0.000000e+00 -1.000000e+00 0.000000e+00
      outer loop
         vertex 5.000000e-03 3.600000e-02 2.999999e-03
         vertex 5.000000e-03 3.600000e-02 3.250000e-02
         vertex 0.000000e+00 3.600000e-02 2.999999e-03
      endloop
   endfacet
   facet normal 0.000000e+00 -1.000000e+00 0.000000e+00
      outer loop
         vertex 0.000000e+00 3.600000e-02 2.999999e-03
         vertex 5.000000e-03 3.600000e-02 3.250000e-02
         vertex 4.000000e-03 3.600000e-02 3.250000e-02
      endloop
   endfacet
   facet normal 0.000000e+00 -1.000000e+00 0.000000e+00
      outer loop
         vertex 0.000000e+00 3.600000e-02 2.999999e-03
         vertex 4.000000e-03 3.600000e-02 3.250000e-02
         vertex 4.000000e-03 3.600000e-02 4.550000e-02
      endloop
   endfacet
   facet normal 0.000000e+00 -1.000000e+00 0.000000e+00
      outer loop
         vertex 5.000000e-03 3.600000e-02 4.550000e-02
         vertex 5.000000e-03 3.600000e-02 7.250000e-02
         vertex 4.000000e-03 3.600000e-02 4.550000e-02
      endloop
   endfacet
   facet normal 0.000000e+00 -1.000000e+00 0.000000e+00
      outer loop
         vertex 4.000000e-03 3.600000e-02 4.550000e-02
         vertex 5.000000e-03 3.600000e-02 7.250000e-02
         vertex 4.000000e-03 3.600000e-02 7.250000e-02
      endloop
   endfacet
   facet normal -0.000000e+00 -1.000000e+00 0.000000e+00
      outer loop
         vertex 4.000000e-03 3.600000e-02 4.550000e-02
         vertex 4.000000e-03 3.600000e-02 7.250000e-02
         vertex 0.000000e+00 3.600000e-02 2.999999e-03
      endloop
   endfacet
   facet normal 0.000000e+00 -1.000000e+00 0.000000e+00
      outer loop
         vertex 0.000000e+00 3.600000e-02 2.999999e-03
         vertex 4.000000e-03 3.600000e-02 7.250000e-02
         vertex 0.000000e+00 3.600000e-02 1.020000e-01
      endloop
   endfacet
   facet normal 0.000000e+00 0.000000e+00 -1.000000e+00
      outer loop
         vertex 0.000000e+00 1.700000e-02 1.020000e-01
         vertex 0.000000e+00 3.600000e-02 1.020000e-01
         vertex 5.000000e-03 1.700000e-02 1.020000e-01
      endloop
   endfacet
   facet normal 0.000000e+00 0.000000e+00 -1.000000e+00
      outer loop
         vertex 5.000000e-03 1.700000e-02 1.020000e-01
         vertex 0.000000e+00 3.600000e-02 1.020000e-01
         vertex 5.000000e-03 3.600000e-02 1.020000e-01
      endloop
   endfacet
   facet normal -0.000000e+00 1.000000e+00 0.000000e+00
      outer loop
         vertex 0.000000e+00 1.700000e-02 1.020000e-01
         vertex 5.000000e-03 1.700000e-02 1.020000e-01
         vertex 5.000000e-03 1.700000e-02 8.550000e-02
      endloop
   endfacet
   facet normal 0.000000e+00 1.000000e+00 0.000000e+00
      outer loop
         vertex 5.000000e-03 1.700000e-02 8.550000e-02
         vertex 4.000000e-03 1.700000e-02 8.550000e-02
         vertex 0.000000e+00 1.700000e-02 1.020000e-01
      endloop
   endfacet
   facet normal 0.000000e+00 1.000000e+00 0.000000e+00
      outer loop
         vertex 0.000000e+00 1.700000e-02 1.020000e-01
         vertex 4.000000e-03 1.700000e-02 8.550000e-02
         vertex 4.000000e-03 1.700000e-02 7.250000e-02
      endloop
   endfacet
   facet normal 0.000000e+00 1.000000e+00 0.000000e+00
      outer loop
         vertex 0.000000e+00 1.700000e-02 1.020000e-01
         vertex 4.000000e-03 1.700000e-02 7.250000e-02
         vertex 0.000000e+00 1.700000e-02 2.999999e-03
      endloop
   endfacet
   facet normal 0.000000e+00 1.000000e+00 0.000000e+00
      outer loop
         vertex 5.000000e-03 1.700000e-02 3.250000e-02
         vertex 5.000000e-03 1.700000e-02 2.999999e-03
         vertex 4.000000e-03 1.700000e-02 3.250000e-02
      endloop
   endfacet
   facet normal 0.000000e+00 1.000000e+00 0.000000e+00
      outer loop
         vertex 4.000000e-03 1.700000e-02 3.250000e-02
         vertex 5.000000e-03 1.700000e-02 2.999999e-03
         vertex 0.000000e+00 1.700000e-02 2.999999e-03
      endloop
   endfacet
   facet normal 0.000000e+00 1.000000e+00 -0.000000e+00
      outer loop
         vertex 4.000000e-03 1.700000e-02 3.250000e-02
         vertex 0.000000e+00 1.700000e-02 2.999999e-03
         vertex 4.000000e-03 1.700000e-02 4.550000e-02
      endloop
   endfacet
   facet normal 0.000000e+00 1.000000e+00 -0.000000e+00
      outer loop
         vertex 4.000000e-03 1.700000e-02 4.550000e-02
         vertex 0.000000e+00 1.700000e-02 2.999999e-03
         vertex 4.000000e-03 1.700000e-02 7.250000e-02
      endloop
   endfacet
   facet normal 0.000000e+00 1.000000e+00 0.000000e+00
      outer loop
         vertex 4.000000e-03 1.700000e-02 4.550000e-02
         vertex 4.000000e-03 1.700000e-02 7.250000e-02
         vertex 5.000000e-03 1.700000e-02 4.550000e-02
      endloop
   endfacet
   facet normal 0.000000e+00 1.000000e+00 0.000000e+00
      outer loop
         vertex 5.000000e-03 1.700000e-02 4.550000e-02
         vertex 4.000000e-03 1.700000e-02 7.250000e-02
         vertex 5.000000e-03 1.700000e-02 7.250000e-02
      endloop
   endfacet
   facet normal -1.000000e+00 -0.000000e+00 0.000000e+00
      outer loop
         vertex 0.000000e+00 1.700000e-02 2.999999e-03
         vertex 0.000000e+00 1.500000e-02 0.000000e+00
         vertex 0.000000e+00 1.700000e-02 1.020000e-01
      endloop
   endfacet
   facet normal -1.000000e+00 -0.000000e+00 0.000000e+00
      outer loop
         vertex 0.000000e+00 1.700000e-02 1.020000e-01
         vertex 0.000000e+00 1.500000e-02 0.000000e+00
         vertex 0.000000e+00 1.500000e-02 1.050000e-01
      endloop
   endfacet
   facet normal -1.000000e+00 0.000000e+00 0.000000e+00
      outer loop
         vertex 0.000000e+00 1.700000e-02 1.020000e-01
         vertex 0.000000e+00 1.500000e-02 1.050000e-01
         vertex 0.000000e+00 3.600000e-02 1.020000e-01
      endloop
   endfacet
   facet normal -1.000000e+00 0.000000e+00 0.000000e+00
      outer loop
         vertex 0.000000e+00 3.600000e-02 1.020000e-01
         vertex 0.000000e+00 1.500000e-02 1.050000e-01
         vertex 0.000000e+00 3.800000e-02 1.050000e-01
      endloop
   endfacet
   facet normal -1.000000e+00 0.000000e+00 0.000000e+00
      outer loop
         vertex 0.000000e+00 3.600000e-02 1.020000e-01
         vertex 0.000000e+00 3.800000e-02 1.050000e-01
         vertex 0.000000e+00 3.600000e-02 2.999999e-03
      endloop
   endfacet
   facet normal -1.000000e+00 0.000000e+00 0.000000e+00
      outer loop
         vertex 0.000000e+00 3.600000e-02 2.999999e-03
         vertex 0.000000e+00 3.800000e-02 1.050000e-01
         vertex 0.000000e+00 3.800000e-02 0.000000e+00
      endloop
   endfacet
   facet normal -1.000000e+00 -0.000000e+00 -0.000000e+00
      outer loop
         vertex 0.000000e+00 3.600000e-02 2.999999e-03
         vertex 0.000000e+00 3.800000e-02 0.000000e+00
         vertex 0.000000e+00 1.700000e-02 2.999999e-03
      endloop
   endfacet
   facet normal -1.000000e+00 0.000000e+00 -0.000000e+00
      outer loop
         vertex 0.000000e+00 1.700000e-02 2.999999e-03
         vertex 0.000000e+00 3.800000e-02 0.000000e+00
         vertex 0.000000e+00 1.500000e-02 0.000000e+00
      endloop
   endfacet
   facet normal -1.000000e+00 0.000000e+00 -0.000000e+00
      outer loop
         vertex 5.000000e-03 3.800000e-02 3.399999e-02
         vertex 5.000000e-03 3.800000e-02 3.250000e-02
         vertex 5.000000e-03 3.600000e-02 3.250000e-02
      endloop
   endfacet
   facet normal -1.000000e+00 0.000000e+00 0.000000e+00
      outer loop
         vertex 5.000000e-03 1.500000e-02 7.400000e-02
         vertex 5.000000e-03 0.000000e+00 7.400000e-02
         vertex 5.000000e-03 0.000000e+00 8.400000e-02
      endloop
   endfacet
   facet normal -1.000000e+00 0.000000e+00 0.000000e+00
      outer loop
         vertex 5.000000e-03 3.600000e-02 2.999999e-03
         vertex 5.000000e-03 1.700000e-02 2.999999e-03
         vertex 5.000000e-03 3.600000e-02 3.250000e-02
      endloop
   endfacet
   facet normal -1.000000e+00 -0.000000e+00 0.000000e+00
      outer loop
         vertex 5.000000e-03 3.600000e-02 3.250000e-02
         vertex 5.000000e-03 1.700000e-02 2.999999e-03
         vertex 5.000000e-03 1.700000e-02 3.250000e-02
      endloop
   endfacet
   facet normal -1.000000e+00 0.000000e+00 0.000000e+00
      outer loop
         vertex 5.000000e-03 1.500000e-02 8.400000e-02
         vertex 5.000000e-03 1.500000e-02 8.550000e-02
         vertex 5.000000e-03 1.700000e-02 8.550000e-02
      endloop
   endfacet
   facet normal -1.000000e+00 0.000000e+00 -0.000000e+00
      outer loop
         vertex 5.000000e-03 3.600000e-02 1.020000e-01
         vertex 5.000000e-03 3.600000e-02 8.550000e-02
         vertex 5.000000e-03 1.500000e-02 7.400000e-02
      endloop
   endfacet
   facet normal -1.000000e+00 0.000000e+00 0.000000e+00
      outer loop
         vertex 5.000000e-03 1.500000e-02 7.400000e-02
         vertex 5.000000e-03 3.600000e-02 8.550000e-02
         vertex 5.000000e-03 1.700000e-02 7.250000e-02
      endloop
   endfacet
   facet normal -1.000000e+00 0.000000e+00 0.000000e+00
      outer loop
         vertex 5.000000e-03 1.500000e-02 7.400000e-02
         vertex 5.000000e-03 1.700000e-02 7.250000e-02
         vertex 5.000000e-03 1.500000e-02 7.250000e-02
      endloop
   endfacet
   facet normal -1.000000e+00 0.000000e+00 0.000000e+00
      outer loop
         vertex 5.000000e-03 3.800000e-02 8.400000e-02
         vertex 5.000000e-03 5.300000e-02 8.400000e-02
         vertex 5.000000e-03 5.300000e-02 7.400000e-02
      endloop
   endfacet
   facet normal -1.000000e+00 0.000000e+00 0.000000e+00
      outer loop
         vertex 5.000000e-03 1.700000e-02 1.020000e-01
         vertex 5.000000e-03 3.600000e-02 1.020000e-01
         vertex 5.000000e-03 1.700000e-02 8.550000e-02
      endloop
   endfacet
   facet normal -1.000000e+00 0.000000e+00 -0.000000e+00
      outer loop
         vertex 5.000000e-03 1.700000e-02 8.550000e-02
         vertex 5.000000e-03 3.600000e-02 1.020000e-01
         vertex 5.000000e-03 1.500000e-02 7.400000e-02
      endloop
   endfacet
   facet normal -1.000000e+00 0.000000e+00 0.000000e+00
      outer loop
         vertex 5.000000e-03 1.700000e-02 8.550000e-02
         vertex 5.000000e-03 1.500000e-02 7.400000e-02
         vertex 5.000000e-03 1.500000e-02 8.400000e-02
      endloop
   endfacet
   facet normal -1.000000e+00 -0.000000e+00 -0.000000e+00
      outer loop
         vertex 5.000000e-03 1.500000e-02 8.400000e-02
         vertex 5.000000e-03 1.500000e-02 7.400000e-02
         vertex 5.000000e-03 0.000000e+00 8.400000e-02
      endloop
   endfacet
   facet normal -1.000000e+00 0.000000e+00 0.000000e+00
      outer loop
         vertex 5.000000e-03 1.500000e-02 4.550000e-02
         vertex 5.000000e-03 1.700000e-02 4.550000e-02
         vertex 5.000000e-03 1.500000e-02 4.400000e-02
      endloop
   endfacet
   facet normal -1.000000e+00 0.000000e+00 0.000000e+00
      outer loop
         vertex 5.000000e-03 1.500000e-02 4.400000e-02
         vertex 5.000000e-03 1.700000e-02 4.550000e-02
         vertex 5.000000e-03 1.500000e-02 3.399999e-02
      endloop
   endfacet
   facet normal -1.000000e+00 -0.000000e+00 -0.000000e+00
      outer loop
         vertex 5.000000e-03 1.500000e-02 4.400000e-02
         vertex 5.000000e-03 1.500000e-02 3.399999e-02
         vertex 5.000000e-03 0.000000e+00 4.400000e-02
      endloop
   endfacet
   facet normal -1.000000e+00 0.000000e+00 0.000000e+00
      outer loop
         vertex 5.000000e-03 0.000000e+00 4.400000e-02
         vertex 5.000000e-03 1.500000e-02 3.399999e-02
         vertex 5.000000e-03 0.000000e+00 3.399999e-02
      endloop
   endfacet
   facet normal -1.000000e+00 0.000000e+00 0.000000e+00
      outer loop
         vertex 5.000000e-03 1.700000e-02 7.250000e-02
         vertex 5.000000e-03 3.600000e-02 3.250000e-02
         vertex 5.000000e-03 1.700000e-02 4.550000e-02
      endloop
   endfacet
   facet normal -1.000000e+00 0.000000e+00 0.000000e+00
      outer loop
         vertex 5.000000e-03 1.700000e-02 4.550000e-02
         vertex 5.000000e-03 3.600000e-02 3.250000e-02
         vertex 5.000000e-03 1.700000e-02 3.250000e-02
      endloop
   endfacet
   facet normal -1.000000e+00 0.000000e+00 -0.000000e+00
      outer loop
         vertex 5.000000e-03 1.700000e-02 4.550000e-02
         vertex 5.000000e-03 1.700000e-02 3.250000e-02
         vertex 5.000000e-03 1.500000e-02 3.399999e-02
      endloop
   endfacet
   facet normal -1.000000e+00 0.000000e+00 0.000000e+00
      outer loop
         vertex 5.000000e-03 1.500000e-02 3.399999e-02
         vertex 5.000000e-03 1.700000e-02 3.250000e-02
         vertex 5.000000e-03 1.500000e-02 3.250000e-02
      endloop
   endfacet
   facet normal -1.000000e+00 0.000000e+00 0.000000e+00
      outer loop
         vertex 5.000000e-03 5.300000e-02 7.400000e-02
         vertex 5.000000e-03 3.800000e-02 7.400000e-02
         vertex 5.000000e-03 3.800000e-02 8.400000e-02
      endloop
   endfacet
   facet normal -1.000000e+00 0.000000e+00 -0.000000e+00
      outer loop
         vertex 5.000000e-03 3.800000e-02 8.400000e-02
         vertex 5.000000e-03 3.800000e-02 7.400000e-02
         vertex 5.000000e-03 1.700000e-02 7.250000e-02
      endloop
   endfacet
   facet normal -1.000000e+00 -0.000000e+00 0.000000e+00
      outer loop
         vertex 5.000000e-03 3.800000e-02 8.400000e-02
         vertex 5.000000e-03 1.700000e-02 7.250000e-02
         vertex 5.000000e-03 3.800000e-02 8.550000e-02
      endloop
   endfacet
   facet normal -1.000000e+00 -0.000000e+00 0.000000e+00
      outer loop
         vertex 5.000000e-03 3.800000e-02 8.550000e-02
         vertex 5.000000e-03 1.700000e-02 7.250000e-02
         vertex 5.000000e-03 3.600000e-02 8.550000e-02
      endloop
   endfacet
   facet normal -1.000000e+00 0.000000e+00 0.000000e+00
      outer loop
         vertex 5.000000e-03 3.600000e-02 4.550000e-02
         vertex 5.000000e-03 3.800000e-02 4.550000e-02
         vertex 5.000000e-03 3.800000e-02 4.400000e-02
      endloop
   endfacet
   facet normal -1.000000e+00 0.000000e+00 0.000000e+00
      outer loop
         vertex 5.000000e-03 3.800000e-02 4.400000e-02
         vertex 5.000000e-03 5.300000e-02 4.400000e-02
         vertex 5.000000e-03 5.300000e-02 3.399999e-02
      endloop
   endfacet
   facet normal -1.000000e+00 0.000000e+00 0.000000e+00
      outer loop
         vertex 5.000000e-03 5.300000e-02 3.399999e-02
         vertex 5.000000e-03 3.800000e-02 3.399999e-02
         vertex 5.000000e-03 3.800000e-02 4.400000e-02
      endloop
   endfacet
   facet normal -1.000000e+00 0.000000e+00 -0.000000e+00
      outer loop
         vertex 5.000000e-03 3.800000e-02 4.400000e-02
         vertex 5.000000e-03 3.800000e-02 3.399999e-02
         vertex 5.000000e-03 3.600000e-02 3.250000e-02
      endloop
   endfacet
   facet normal -1.000000e+00 -0.000000e+00 0.000000e+00
      outer loop
         vertex 5.000000e-03 3.800000e-02 4.400000e-02
         vertex 5.000000e-03 3.600000e-02 3.250000e-02
         vertex 5.000000e-03 3.600000e-02 4.550000e-02
      endloop
   endfacet
   facet normal -1.000000e+00 -0.000000e+00 -0.000000e+00
      outer loop
         vertex 5.000000e-03 3.600000e-02 4.550000e-02
         vertex 5.000000e-03 3.600000e-02 3.250000e-02
         vertex 5.000000e-03 1.700000e-02 7.250000e-02
      endloop
   endfacet
   facet normal -1.000000e+00 0.000000e+00 0.000000e+00
      outer loop
         vertex 5.000000e-03 3.600000e-02 4.550000e-02
         vertex 5.000000e-03 1.700000e-02 7.250000e-02
         vertex 5.000000e-03 3.600000e-02 7.250000e-02
      endloop
   endfacet
   facet normal -1.000000e+00 0.000000e+00 0.000000e+00
      outer loop
         vertex 5.000000e-03 3.600000e-02 7.250000e-02
         vertex 5.000000e-03 1.700000e-02 7.250000e-02
         vertex 5.000000e-03 3.800000e-02 7.400000e-02
      endloop
   endfacet
   facet normal -1.000000e+00 0.000000e+00 0.000000e+00
      outer loop
         vertex 5.000000e-03 3.600000e-02 7.250000e-02
         vertex 5.000000e-03 3.800000e-02 7.400000e-02
         vertex 5.000000e-03 3.800000e-02 7.250000e-02
      endloop
   endfacet
   facet normal 1.000000e+00 0.000000e+00 -0.000000e+00
      outer loop
         vertex 4.000000e-03 1.700000e-02 3.250000e-02
         vertex 4.000000e-03 1.700000e-02 4.550000e-02
         vertex 4.000000e-03 1.500000e-02 3.250000e-02
      endloop
   endfacet
   facet normal 1.000000e+00 0.000000e+00 0.000000e+00
      outer loop
         vertex 4.000000e-03 1.500000e-02 3.250000e-02
         vertex 4.000000e-03 1.700000e-02 4.550000e-02
         vertex 4.000000e-03 1.500000e-02 4.550000e-02
      endloop
   endfacet
   facet normal 1.000000e+00 0.000000e+00 -0.000000e+00
      outer loop
         vertex 4.000000e-03 1.700000e-02 7.250000e-02
         vertex 4.000000e-03 1.700000e-02 8.550000e-02
         vertex 4.000000e-03 1.500000e-02 7.250000e-02
      endloop
   endfacet
   facet normal 1.000000e+00 0.000000e+00 0.000000e+00
      outer loop
         vertex 4.000000e-03 1.500000e-02 7.250000e-02
         vertex 4.000000e-03 1.700000e-02 8.550000e-02
         vertex 4.000000e-03 1.500000e-02 8.550000e-02
      endloop
   endfacet
   facet normal 1.000000e+00 0.000000e+00 -0.000000e+00
      outer loop
         vertex 4.000000e-03 3.800000e-02 3.250000e-02
         vertex 4.000000e-03 3.800000e-02 4.550000e-02
         vertex 4.000000e-03 3.600000e-02 3.250000e-02
      endloop
   endfacet
   facet normal 1.000000e+00 0.000000e+00 0.000000e+00
      outer loop
         vertex 4.000000e-03 3.600000e-02 3.250000e-02
         vertex 4.000000e-03 3.800000e-02 4.550000e-02
         vertex 4.000000e-03 3.600000e-02 4.550000e-02
      endloop
   endfacet
   facet normal 1.000000e+00 0.000000e+00 -0.000000e+00
      outer loop
         vertex 4.000000e-03 3.800000e-02 7.250000e-02
         vertex 4.000000e-03 3.800000e-02 8.550000e-02
         vertex 4.000000e-03 3.600000e-02 7.250000e-02
      endloop
   endfacet
   facet normal 1.000000e+00 0.000000e+00 0.000000e+00
      outer loop
         vertex 4.000000e-03 3.600000e-02 7.250000e-02
         vertex 4.000000e-03 3.800000e-02 8.550000e-02
         vertex 4.000000e-03 3.600000e-02 8.550000e-02
      endloop
   endfacet
   facet normal 0.000000e+00 1.000000e+00 0.000000e+00
      outer loop
         vertex 8.000000e-03 5.300000e-02 8.400000e-02
         vertex 8.000000e-03 5.300000e-02 7.400000e-02
         vertex 5.000000e-03 5.300000e-02 8.400000e-02
      endloop
   endfacet
   facet normal 0.000000e+00 1.000000e+00 0.000000e+00
      outer loop
         vertex 5.000000e-03 5.300000e-02 8.400000e-02
         vertex 8.000000e-03 5.300000e-02 7.400000e-02
         vertex 5.000000e-03 5.300000e-02 7.400000e-02
      endloop
   endfacet
   facet normal 0.000000e+00 -0.000000e+00 1.000000e+00
      outer loop
         vertex 8.000000e-03 3.800000e-02 8.400000e-02
         vertex 8.000000e-03 5.300000e-02 8.400000e-02
         vertex 5.000000e-03 3.800000e-02 8.400000e-02
      endloop
   endfacet
   facet normal 0.000000e+00 -0.000000e+00 1.000000e+00
      outer loop
         vertex 5.000000e-03 3.800000e-02 8.400000e-02
         vertex 8.000000e-03 5.300000e-02 8.400000e-02
         vertex 5.000000e-03 5.300000e-02 8.400000e-02
      endloop
   endfacet
   facet normal 0.000000e+00 0.000000e+00 -1.000000e+00
      outer loop
         vertex 5.000000e-03 3.800000e-02 7.400000e-02
         vertex 5.000000e-03 5.300000e-02 7.400000e-02
         vertex 8.000000e-03 3.800000e-02 7.400000e-02
      endloop
   endfacet
   facet normal 0.000000e+00 0.000000e+00 -1.000000e+00
      outer loop
         vertex 8.000000e-03 3.800000e-02 7.400000e-02
         vertex 5.000000e-03 5.300000e-02 7.400000e-02
         vertex 8.000000e-03 5.300000e-02 7.400000e-02
      endloop
   endfacet
   facet normal 0.000000e+00 0.000000e+00 -1.000000e+00
      outer loop
         vertex 8.000000e-03 0.000000e+00 7.400000e-02
         vertex 5.000000e-03 0.000000e+00 7.400000e-02
         vertex 8.000000e-03 1.500000e-02 7.400000e-02
      endloop
   endfacet
   facet normal -0.000000e+00 0.000000e+00 -1.000000e+00
      outer loop
         vertex 8.000000e-03 1.500000e-02 7.400000e-02
         vertex 5.000000e-03 0.000000e+00 7.400000e-02
         vertex 5.000000e-03 1.500000e-02 7.400000e-02
      endloop
   endfacet
   facet normal 0.000000e+00 0.000000e+00 1.000000e+00
      outer loop
         vertex 5.000000e-03 0.000000e+00 8.400000e-02
         vertex 8.000000e-03 0.000000e+00 8.400000e-02
         vertex 5.000000e-03 1.500000e-02 8.400000e-02
      endloop
   endfacet
   facet normal -0.000000e+00 0.000000e+00 1.000000e+00
      outer loop
         vertex 5.000000e-03 1.500000e-02 8.400000e-02
         vertex 8.000000e-03 0.000000e+00 8.400000e-02
         vertex 8.000000e-03 1.500000e-02 8.400000e-02
      endloop
   endfacet
   facet normal 0.000000e+00 -1.000000e+00 0.000000e+00
      outer loop
         vertex 8.000000e-03 0.000000e+00 7.400000e-02
         vertex 8.000000e-03 0.000000e+00 8.400000e-02
         vertex 5.000000e-03 0.000000e+00 7.400000e-02
      endloop
   endfacet
   facet normal 0.000000e+00 -1.000000e+00 0.000000e+00
      outer loop
         vertex 5.000000e-03 0.000000e+00 7.400000e-02
         vertex 8.000000e-03 0.000000e+00 8.400000e-02
         vertex 5.000000e-03 0.000000e+00 8.400000e-02
      endloop
   endfacet
   facet normal 0.000000e+00 1.000000e+00 0.000000e+00
      outer loop
         vertex 8.000000e-03 5.300000e-02 4.400000e-02
         vertex 8.000000e-03 5.300000e-02 3.399999e-02
         vertex 5.000000e-03 5.300000e-02 4.400000e-02
      endloop
   endfacet
   facet normal 0.000000e+00 1.000000e+00 0.000000e+00
      outer loop
         vertex 5.000000e-03 5.300000e-02 4.400000e-02
         vertex 8.000000e-03 5.300000e-02 3.399999e-02
         vertex 5.000000e-03 5.300000e-02 3.399999e-02
      endloop
   endfacet
   facet normal 0.000000e+00 -0.000000e+00 1.000000e+00
      outer loop
         vertex 8.000000e-03 3.800000e-02 4.400000e-02
         vertex 8.000000e-03 5.300000e-02 4.400000e-02
         vertex 5.000000e-03 3.800000e-02 4.400000e-02
      endloop
   endfacet
   facet normal 0.000000e+00 -0.000000e+00 1.000000e+00
      outer loop
         vertex 5.000000e-03 3.800000e-02 4.400000e-02
         vertex 8.000000e-03 5.300000e-02 4.400000e-02
         vertex 5.000000e-03 5.300000e-02 4.400000e-02
      endloop
   endfacet
   facet normal 0.000000e+00 0.000000e+00 -1.000000e+00
      outer loop
         vertex 5.000000e-03 3.800000e-02 3.399999e-02
         vertex 5.000000e-03 5.300000e-02 3.399999e-02
         vertex 8.000000e-03 3.800000e-02 3.399999e-02
      endloop
   endfacet
   facet normal 0.000000e+00 0.000000e+00 -1.000000e+00
      outer loop
         vertex 8.000000e-03 3.800000e-02 3.399999e-02
         vertex 5.000000e-03 5.300000e-02 3.399999e-02
         vertex 8.000000e-03 5.300000e-02 3.399999e-02
      endloop
   endfacet
   facet normal 0.000000e+00 0.000000e+00 -1.000000e+00
      outer loop
         vertex 8.000000e-03 0.000000e+00 3.399999e-02
         vertex 5.000000e-03 0.000000e+00 3.399999e-02
         vertex 8.000000e-03 1.500000e-02 3.399999e-02
      endloop
   endfacet
   facet normal -0.000000e+00 0.000000e+00 -1.000000e+00
      outer loop
         vertex 8.000000e-03 1.500000e-02 3.399999e-02
         vertex 5.000000e-03 0.000000e+00 3.399999e-02
         vertex 5.000000e-03 1.500000e-02 3.399999e-02
      endloop
   endfacet
   facet normal 0.000000e+00 0.000000e+00 1.000000e+00
      outer loop
         vertex 5.000000e-03 0.000000e+00 4.400000e-02
         vertex 8.000000e-03 0.000000e+00 4.400000e-02
         vertex 5.000000e-03 1.500000e-02 4.400000e-02
      endloop
   endfacet
   facet normal -0.000000e+00 0.000000e+00 1.000000e+00
      outer loop
         vertex 5.000000e-03 1.500000e-02 4.400000e-02
         vertex 8.000000e-03 0.000000e+00 4.400000e-02
         vertex 8.000000e-03 1.500000e-02 4.400000e-02
      endloop
   endfacet
   facet normal 0.000000e+00 -1.000000e+00 0.000000e+00
      outer loop
         vertex 8.000000e-03 0.000000e+00 3.399999e-02
         vertex 8.000000e-03 0.000000e+00 4.400000e-02
         vertex 5.000000e-03 0.000000e+00 3.399999e-02
      endloop
   endfacet
   facet normal 0.000000e+00 -1.000000e+00 0.000000e+00
      outer loop
         vertex 5.000000e-03 0.000000e+00 3.399999e-02
         vertex 8.000000e-03 0.000000e+00 4.400000e-02
         vertex 5.000000e-03 0.000000e+00 4.400000e-02
      endloop
   endfacet
   facet normal 0.000000e+00 0.000000e+00 1.000000e+00
      outer loop
         vertex 5.000000e-03 3.800000e-02 7.250000e-02
         vertex 4.000000e-03 3.800000e-02 7.250000e-02
         vertex 5.000000e-03 3.600000e-02 7.250000e-02
      endloop
   endfacet
   facet normal 0.000000e+00 0.000000e+00 1.000000e+00
      outer loop
         vertex 5.000000e-03 3.600000e-02 7.250000e-02
         vertex 4.000000e-03 3.800000e-02 7.250000e-02
         vertex 4.000000e-03 3.600000e-02 7.250000e-02
      endloop
   endfacet
   facet normal 0.000000e+00 0.000000e+00 -1.000000e+00
      outer loop
         vertex 4.000000e-03 3.800000e-02 8.550000e-02
         vertex 5.000000e-03 3.800000e-02 8.550000e-02
         vertex 4.000000e-03 3.600000e-02 8.550000e-02
      endloop
   endfacet
   facet normal 0.000000e+00 0.000000e+00 -1.000000e+00
      outer loop
         vertex 4.000000e-03 3.600000e-02 8.550000e-02
         vertex 5.000000e-03 3.800000e-02 8.550000e-02
         vertex 5.000000e-03 3.600000e-02 8.550000e-02
      endloop
   endfacet
   facet normal 0.000000e+00 0.000000e+00 1.000000e+00
      outer loop
         vertex 5.000000e-03 3.800000e-02 3.250000e-02
         vertex 4.000000e-03 3.800000e-02 3.250000e-02
         vertex 5.000000e-03 3.600000e-02 3.250000e-02
      endloop
   endfacet
   facet normal 0.000000e+00 0.000000e+00 1.000000e+00
      outer loop
         vertex 5.000000e-03 3.600000e-02 3.250000e-02
         vertex 4.000000e-03 3.800000e-02 3.250000e-02
         vertex 4.000000e-03 3.600000e-02 3.250000e-02
      endloop
   endfacet
   facet normal 0.000000e+00 0.000000e+00 -1.000000e+00
      outer loop
         vertex 4.000000e-03 3.800000e-02 4.550000e-02
         vertex 5.000000e-03 3.800000e-02 4.550000e-02
         vertex 4.000000e-03 3.600000e-02 4.550000e-02
      endloop
   endfacet
   facet normal 0.000000e+00 0.000000e+00 -1.000000e+00
      outer loop
         vertex 4.000000e-03 3.600000e-02 4.550000e-02
         vertex 5.000000e-03 3.800000e-02 4.550000e-02
         vertex 5.000000e-03 3.600000e-02 4.550000e-02
      endloop
   endfacet
   facet normal 0.000000e+00 0.000000e+00 -1.000000e+00
      outer loop
         vertex 4.000000e-03 1.500000e-02 8.550000e-02
         vertex 4.000000e-03 1.700000e-02 8.550000e-02
         vertex 5.000000e-03 1.500000e-02 8.550000e-02
      endloop
   endfacet
   facet normal 0.000000e+00 0.000000e+00 -1.000000e+00
      outer loop
         vertex 5.000000e-03 1.500000e-02 8.550000e-02
         vertex 4.000000e-03 1.700000e-02 8.550000e-02
         vertex 5.000000e-03 1.700000e-02 8.550000e-02
      endloop
   endfacet
   facet normal 0.000000e+00 -0.000000e+00 1.000000e+00
      outer loop
         vertex 5.000000e-03 1.500000e-02 7.250000e-02
         vertex 5.000000e-03 1.700000e-02 7.250000e-02
         vertex 4.000000e-03 1.500000e-02 7.250000e-02
      endloop
   endfacet
   facet normal 0.000000e+00 0.000000e+00 1.000000e+00
      outer loop
         vertex 4.000000e-03 1.500000e-02 7.250000e-02
         vertex 5.000000e-03 1.700000e-02 7.250000e-02
         vertex 4.000000e-03 1.700000e-02 7.250000e-02
      endloop
   endfacet
   facet normal 0.000000e+00 0.000000e+00 -1.000000e+00
      outer loop
         vertex 4.000000e-03 1.500000e-02 4.550000e-02
         vertex 4.000000e-03 1.700000e-02 4.550000e-02
         vertex 5.000000e-03 1.500000e-02 4.550000e-02
      endloop
   endfacet
   facet normal 0.000000e+00 0.000000e+00 -1.000000e+00
      outer loop
         vertex 5.000000e-03 1.500000e-02 4.550000e-02
         vertex 4.000000e-03 1.700000e-02 4.550000e-02
         vertex 5.000000e-03 1.700000e-02 4.550000e-02
      endloop
   endfacet
   facet normal 0.000000e+00 -0.000000e+00 1.000000e+00
      outer loop
         vertex 5.000000e-03 1.500000e-02 3.250000e-02
         vertex 5.000000e-03 1.700000e-02 3.250000e-02
         vertex 4.000000e-03 1.500000e-02 3.250000e-02
      endloop
   endfacet
   facet normal 0.000000e+00 0.000000e+00 1.000000e+00
      outer loop
         vertex 4.000000e-03 1.500000e-02 3.250000e-02
         vertex 5.000000e-03 1.700000e-02 3.250000e-02
         vertex 4.000000e-03 1.700000e-02 3.250000e-02
      endloop
   endfacet
endsolid