solid add_sensor_chamber
   facet normal 1.000000e+00 0.000000e+00 -0.000000e+00
      outer loop
         vertex 3.000000e-02 1.000000e-03 0.000000e+00
         vertex 3.000000e-02 1.000000e-03 3.000000e-02
         vertex 3.000000e-02 0.000000e+00 0.000000e+00
      endloop
   endfacet
   facet normal 1.000000e+00 0.000000e+00 0.000000e+00
      outer loop
         vertex 3.000000e-02 0.000000e+00 0.000000e+00
         vertex 3.000000e-02 1.000000e-03 3.000000e-02
         vertex 3.000000e-02 0.000000e+00 3.000000e-02
      endloop
   endfacet
   facet normal 0.000000e+00 0.000000e+00 -1.000000e+00
      outer loop
         vertex 0.000000e+00 1.000000e-03 0.000000e+00
         vertex 3.000000e-02 1.000000e-03 0.000000e+00
         vertex 0.000000e+00 0.000000e+00 0.000000e+00
      endloop
   endfacet
   facet normal 0.000000e+00 0.000000e+00 -1.000000e+00
      outer loop
         vertex 0.000000e+00 0.000000e+00 0.000000e+00
         vertex 3.000000e-02 1.000000e-03 0.000000e+00
         vertex 3.000000e-02 0.000000e+00 0.000000e+00
      endloop
   endfacet
   facet normal -1.000000e+00 -0.000000e+00 -0.000000e+00
      outer loop
         vertex 0.000000e+00 1.000000e-03 3.000000e-02
         vertex 0.000000e+00 1.000000e-03 0.000000e+00
         vertex 0.000000e+00 0.000000e+00 3.000000e-02
      endloop
   endfacet
   facet normal -1.000000e+00 0.000000e+00 0.000000e+00
      outer loop
         vertex 0.000000e+00 0.000000e+00 3.000000e-02
         vertex 0.000000e+00 1.000000e-03 0.000000e+00
         vertex 0.000000e+00 0.000000e+00 0.000000e+00
      endloop
   endfacet
   facet normal 0.000000e+00 0.000000e+00 1.000000e+00
      outer loop
         vertex 3.000000e-02 1.000000e-03 3.000000e-02
         vertex 0.000000e+00 1.000000e-03 3.000000e-02
         vertex 3.000000e-02 0.000000e+00 3.000000e-02
      endloop
   endfacet
   facet normal 0.000000e+00 0.000000e+00 1.000000e+00
      outer loop
         vertex 3.000000e-02 0.000000e+00 3.000000e-02
         vertex 0.000000e+00 1.000000e-03 3.000000e-02
         vertex 0.000000e+00 0.000000e+00 3.000000e-02
      endloop
   endfacet
   facet normal 0.000000e+00 1.000000e+00 0.000000e+00
      outer loop
         vertex 0.000000e+00 1.000000e-03 0.000000e+00
         vertex 0.000000e+00 1.000000e-03 3.000000e-02
         vertex 3.000000e-02 1.000000e-03 0.000000e+00
      endloop
   endfacet
   facet normal 0.000000e+00 1.000000e+00 -0.000000e+00
      outer loop
         vertex 3.000000e-02 1.000000e-03 0.000000e+00
         vertex 0.000000e+00 1.000000e-03 3.000000e-02
         vertex 3.000000e-02 1.000000e-03 3.000000e-02
      endloop
   endfacet
   facet normal 0.000000e+00 -1.000000e+00 0.000000e+00
      outer loop
         vertex 0.000000e+00 0.000000e+00 3.000000e-02
         vertex 0.000000e+00 0.000000e+00 0.000000e+00
         vertex 3.000000e-02 0.000000e+00 3.000000e-02
      endloop
   endfacet
   facet normal 0.000000e+00 -1.000000e+00 -0.000000e+00
      outer loop
         vertex 3.000000e-02 0.000000e+00 3.000000e-02
         vertex 0.000000e+00 0.000000e+00 0.000000e+00
         vertex 3.000000e-02 0.000000e+00 0.000000e+00
      endloop
   endfacet
endsolid