solid 后处理_v4
   facet normal -1.000000e+00 0.000000e+00 0.000000e+00
      outer loop
         vertex 5.000000e-03 2.000000e-03 9.400003e-03
         vertex 5.000000e-03 0.000000e+00 9.400003e-03
         vertex 5.000000e-03 2.000000e-03 1.146000e-01
      endloop
   endfacet
   facet normal -1.000000e+00 -0.000000e+00 0.000000e+00
      outer loop
         vertex 5.000000e-03 2.000000e-03 1.146000e-01
         vertex 5.000000e-03 0.000000e+00 9.400003e-03
         vertex 5.000000e-03 0.000000e+00 1.146000e-01
      endloop
   endfacet
   facet normal -1.000000e+00 -0.000000e+00 -0.000000e+00
      outer loop
         vertex 5.000000e-03 2.100000e-02 1.240000e-01
         vertex 5.000000e-03 2.100000e-02 1.210000e-01
         vertex 5.000000e-03 2.000000e-03 1.240000e-01
      endloop
   endfacet
   facet normal -1.000000e+00 0.000000e+00 0.000000e+00
      outer loop
         vertex 5.000000e-03 2.000000e-03 1.240000e-01
         vertex 5.000000e-03 2.100000e-02 1.210000e-01
         vertex 5.000000e-03 2.000000e-03 1.210000e-01
      endloop
   endfacet
   facet normal -1.000000e+00 0.000000e+00 0.000000e+00
      outer loop
         vertex 5.000000e-03 2.300000e-02 9.400003e-03
         vertex 5.000000e-03 2.100000e-02 9.400003e-03
         vertex 5.000000e-03 2.300000e-02 1.146000e-01
      endloop
   endfacet
   facet normal -1.000000e+00 -0.000000e+00 0.000000e+00
      outer loop
         vertex 5.000000e-03 2.300000e-02 1.146000e-01
         vertex 5.000000e-03 2.100000e-02 9.400003e-03
         vertex 5.000000e-03 2.100000e-02 1.146000e-01
      endloop
   endfacet
   facet normal -1.000000e+00 -0.000000e+00 -0.000000e+00
      outer loop
         vertex 5.000000e-03 2.100000e-02 2.999999e-03
         vertex 5.000000e-03 2.100000e-02 0.000000e+00
         vertex 5.000000e-03 2.000000e-03 2.999999e-03
      endloop
   endfacet
   facet normal -1.000000e+00 0.000000e+00 0.000000e+00
      outer loop
         vertex 5.000000e-03 2.000000e-03 2.999999e-03
         vertex 5.000000e-03 2.100000e-02 0.000000e+00
         vertex 5.000000e-03 2.000000e-03 0.000000e+00
      endloop
   endfacet
   facet normal 0.000000e+00 -1.000000e+00 0.000000e+00
      outer loop
         vertex 0.000000e+00 0.000000e+00 9.400003e-03
         vertex 0.000000e+00 0.000000e+00 0.000000e+00
         vertex 5.000000e-03 0.000000e+00 9.400003e-03
      endloop
   endfacet
   facet normal 0.000000e+00 -1.000000e+00 -0.000000e+00
      outer loop
         vertex 5.000000e-03 0.000000e+00 9.400003e-03
         vertex 0.000000e+00 0.000000e+00 0.000000e+00
         vertex 1.300000e-02 0.000000e+00 0.000000e+00
      endloop
   endfacet
   facet normal 0.000000e+00 -1.000000e+00 0.000000e+00
      outer loop
         vertex 5.000000e-03 0.000000e+00 9.400003e-03
         vertex 1.300000e-02 0.000000e+00 0.000000e+00
         vertex 5.000000e-03 0.000000e+00 1.146000e-01
      endloop
   endfacet
   facet normal 0.000000e+00 -1.000000e+00 0.000000e+00
      outer loop
         vertex 5.000000e-03 0.000000e+00 1.146000e-01
         vertex 1.300000e-02 0.000000e+00 0.000000e+00
         vertex 1.300000e-02 0.000000e+00 1.240000e-01
      endloop
   endfacet
   facet normal 0.000000e+00 -1.000000e+00 0.000000e+00
      outer loop
         vertex 5.000000e-03 0.000000e+00 1.146000e-01
         vertex 1.300000e-02 0.000000e+00 1.240000e-01
         vertex 0.000000e+00 0.000000e+00 1.146000e-01
      endloop
   endfacet
   facet normal 0.000000e+00 -1.000000e+00 0.000000e+00
      outer loop
         vertex 0.000000e+00 0.000000e+00 1.146000e-01
         vertex 1.300000e-02 0.000000e+00 1.240000e-01
         vertex 0.000000e+00 0.000000e+00 1.240000e-01
      endloop
   endfacet
   facet normal 0.000000e+00 0.000000e+00 -1.000000e+00
      outer loop
         vertex 0.000000e+00 0.000000e+00 0.000000e+00
         vertex 0.000000e+00 2.000000e-03 0.000000e+00
         vertex 5.000000e-03 2.000000e-03 0.000000e+00
      endloop
   endfacet
   facet normal 0.000000e+00 0.000000e+00 -1.000000e+00
      outer loop
         vertex 0.000000e+00 2.100000e-02 0.000000e+00
         vertex 0.000000e+00 2.300000e-02 0.000000e+00
         vertex 5.000000e-03 2.100000e-02 0.000000e+00
      endloop
   endfacet
   facet normal 0.000000e+00 0.000000e+00 -1.000000e+00
      outer loop
         vertex 5.000000e-03 2.100000e-02 0.000000e+00
         vertex 0.000000e+00 2.300000e-02 0.000000e+00
         vertex 1.300000e-02 2.300000e-02 0.000000e+00
      endloop
   endfacet
   facet normal 0.000000e+00 0.000000e+00 -1.000000e+00
      outer loop
         vertex 5.000000e-03 2.100000e-02 0.000000e+00
         vertex 1.300000e-02 2.300000e-02 0.000000e+00
         vertex 5.000000e-03 2.000000e-03 0.000000e+00
      endloop
   endfacet
   facet normal 0.000000e+00 0.000000e+00 -1.000000e+00
      outer loop
         vertex 5.000000e-03 2.000000e-03 0.000000e+00
         vertex 1.300000e-02 2.300000e-02 0.000000e+00
         vertex 1.300000e-02 0.000000e+00 0.000000e+00
      endloop
   endfacet
   facet normal 0.000000e+00 -0.000000e+00 -1.000000e+00
      outer loop
         vertex 5.000000e-03 2.000000e-03 0.000000e+00
         vertex 1.300000e-02 0.000000e+00 0.000000e+00
         vertex 0.000000e+00 0.000000e+00 0.000000e+00
      endloop
   endfacet
   facet normal 0.000000e+00 1.000000e+00 0.000000e+00
      outer loop
         vertex 0.000000e+00 2.300000e-02 1.146000e-01
         vertex 0.000000e+00 2.300000e-02 1.240000e-01
         vertex 5.000000e-03 2.300000e-02 1.146000e-01
      endloop
   endfacet
   facet normal 0.000000e+00 1.000000e+00 -0.000000e+00
      outer loop
         vertex 5.000000e-03 2.300000e-02 1.146000e-01
         vertex 0.000000e+00 2.300000e-02 1.240000e-01
         vertex 1.300000e-02 2.300000e-02 1.240000e-01
      endloop
   endfacet
   facet normal -0.000000e+00 1.000000e+00 0.000000e+00
      outer loop
         vertex 5.000000e-03 2.300000e-02 1.146000e-01
         vertex 1.300000e-02 2.300000e-02 1.240000e-01
         vertex 5.000000e-03 2.300000e-02 9.400003e-03
      endloop
   endfacet
   facet normal -0.000000e+00 1.000000e+00 0.000000e+00
      outer loop
         vertex 5.000000e-03 2.300000e-02 9.400003e-03
         vertex 1.300000e-02 2.300000e-02 1.240000e-01
         vertex 1.300000e-02 2.300000e-02 0.000000e+00
      endloop
   endfacet
   facet normal 0.000000e+00 1.000000e+00 0.000000e+00
      outer loop
         vertex 5.000000e-03 2.300000e-02 9.400003e-03
         vertex 1.300000e-02 2.300000e-02 0.000000e+00
         vertex 0.000000e+00 2.300000e-02 9.400003e-03
      endloop
   endfacet
   facet normal 0.000000e+00 1.000000e+00 0.000000e+00
      outer loop
         vertex 0.000000e+00 2.300000e-02 9.400003e-03
         vertex 1.300000e-02 2.300000e-02 0.000000e+00
         vertex 0.000000e+00 2.300000e-02 0.000000e+00
      endloop
   endfacet
   facet normal 0.000000e+00 0.000000e+00 1.000000e+00
      outer loop
         vertex 0.000000e+00 2.300000e-02 1.240000e-01
         vertex 0.000000e+00 2.100000e-02 1.240000e-01
         vertex 5.000000e-03 2.100000e-02 1.240000e-01
      endloop
   endfacet
   facet normal -0.000000e+00 0.000000e+00 1.000000e+00
      outer loop
         vertex 0.000000e+00 2.000000e-03 1.240000e-01
         vertex 0.000000e+00 0.000000e+00 1.240000e-01
         vertex 5.000000e-03 2.000000e-03 1.240000e-01
      endloop
   endfacet
   facet normal 0.000000e+00 0.000000e+00 1.000000e+00
      outer loop
         vertex 5.000000e-03 2.000000e-03 1.240000e-01
         vertex 0.000000e+00 0.000000e+00 1.240000e-01
         vertex 1.300000e-02 0.000000e+00 1.240000e-01
      endloop
   endfacet
   facet normal -0.000000e+00 0.000000e+00 1.000000e+00
      outer loop
         vertex 5.000000e-03 2.000000e-03 1.240000e-01
         vertex 1.300000e-02 0.000000e+00 1.240000e-01
         vertex 5.000000e-03 2.100000e-02 1.240000e-01
      endloop
   endfacet
   facet normal -0.000000e+00 0.000000e+00 1.000000e+00
      outer loop
         vertex 5.000000e-03 2.100000e-02 1.240000e-01
         vertex 1.300000e-02 0.000000e+00 1.240000e-01
         vertex 1.300000e-02 2.300000e-02 1.240000e-01
      endloop
   endfacet
   facet normal 0.000000e+00 -0.000000e+00 1.000000e+00
      outer loop
         vertex 5.000000e-03 2.100000e-02 1.240000e-01
         vertex 1.300000e-02 2.300000e-02 1.240000e-01
         vertex 0.000000e+00 2.300000e-02 1.240000e-01
      endloop
   endfacet
   facet normal 1.000000e+00 0.000000e+00 -0.000000e+00
      outer loop
         vertex 1.300000e-02 2.300000e-02 0.000000e+00
         vertex 1.300000e-02 2.300000e-02 1.240000e-01
         vertex 1.300000e-02 0.000000e+00 0.000000e+00
      endloop
   endfacet
   facet normal 1.000000e+00 0.000000e+00 0.000000e+00
      outer loop
         vertex 1.300000e-02 0.000000e+00 0.000000e+00
         vertex 1.300000e-02 2.300000e-02 1.240000e-01
         vertex 1.300000e-02 0.000000e+00 1.240000e-01
      endloop
   endfacet
   facet normal -0.000000e+00 0.000000e+00 1.000000e+00
      outer loop
         vertex 5.000000e-03 2.100000e-02 2.999999e-03
         vertex 5.000000e-03 2.000000e-03 2.999999e-03
         vertex 1.000000e-02 2.100000e-02 2.999999e-03
      endloop
   endfacet
   facet normal 0.000000e+00 0.000000e+00 1.000000e+00
      outer loop
         vertex 1.000000e-02 2.100000e-02 2.999999e-03
         vertex 5.000000e-03 2.000000e-03 2.999999e-03
         vertex 1.000000e-02 2.000000e-03 2.999999e-03
      endloop
   endfacet
   facet normal -0.000000e+00 -1.000000e+00 -0.000000e+00
      outer loop
         vertex 5.000000e-03 2.100000e-02 1.240000e-01
         vertex 0.000000e+00 2.100000e-02 1.240000e-01
         vertex 5.000000e-03 2.100000e-02 1.210000e-01
      endloop
   endfacet
   facet normal -0.000000e+00 -1.000000e+00 0.000000e+00
      outer loop
         vertex 5.000000e-03 2.100000e-02 1.210000e-01
         vertex 0.000000e+00 2.100000e-02 1.240000e-01
         vertex 0.000000e+00 2.100000e-02 1.146000e-01
      endloop
   endfacet
   facet normal 0.000000e+00 -1.000000e+00 -0.000000e+00
      outer loop
         vertex 5.000000e-03 2.100000e-02 1.210000e-01
         vertex 0.000000e+00 2.100000e-02 1.146000e-01
         vertex 1.000000e-02 2.100000e-02 1.210000e-01
      endloop
   endfacet
   facet normal 0.000000e+00 -1.000000e+00 0.000000e+00
      outer loop
         vertex 1.000000e-02 2.100000e-02 1.210000e-01
         vertex 0.000000e+00 2.100000e-02 1.146000e-01
         vertex 5.000000e-03 2.100000e-02 1.146000e-01
      endloop
   endfacet
   facet normal 0.000000e+00 -1.000000e+00 -0.000000e+00
      outer loop
         vertex 1.000000e-02 2.100000e-02 1.210000e-01
         vertex 5.000000e-03 2.100000e-02 1.146000e-01
         vertex 1.000000e-02 2.100000e-02 2.999999e-03
      endloop
   endfacet
   facet normal 0.000000e+00 -1.000000e+00 0.000000e+00
      outer loop
         vertex 1.000000e-02 2.100000e-02 2.999999e-03
         vertex 5.000000e-03 2.100000e-02 1.146000e-01
         vertex 5.000000e-03 2.100000e-02 9.400003e-03
      endloop
   endfacet
   facet normal 0.000000e+00 -1.000000e+00 0.000000e+00
      outer loop
         vertex 1.000000e-02 2.100000e-02 2.999999e-03
         vertex 5.000000e-03 2.100000e-02 9.400003e-03
         vertex 5.000000e-03 2.100000e-02 2.999999e-03
      endloop
   endfacet
   facet normal 0.000000e+00 -1.000000e+00 0.000000e+00
      outer loop
         vertex 5.000000e-03 2.100000e-02 2.999999e-03
         vertex 5.000000e-03 2.100000e-02 9.400003e-03
         vertex 0.000000e+00 2.100000e-02 9.400003e-03
      endloop
   endfacet
   facet normal -0.000000e+00 -1.000000e+00 -0.000000e+00
      outer loop
         vertex 5.000000e-03 2.100000e-02 2.999999e-03
         vertex 0.000000e+00 2.100000e-02 9.400003e-03
         vertex 5.000000e-03 2.100000e-02 0.000000e+00
      endloop
   endfacet
   facet normal 0.000000e+00 -1.000000e+00 0.000000e+00
      outer loop
         vertex 5.000000e-03 2.100000e-02 0.000000e+00
         vertex 0.000000e+00 2.100000e-02 9.400003e-03
         vertex 0.000000e+00 2.100000e-02 0.000000e+00
      endloop
   endfacet
   facet normal 0.000000e+00 0.000000e+00 -1.000000e+00
      outer loop
         vertex 5.000000e-03 2.000000e-03 1.210000e-01
         vertex 5.000000e-03 2.100000e-02 1.210000e-01
         vertex 1.000000e-02 2.000000e-03 1.210000e-01
      endloop
   endfacet
   facet normal 0.000000e+00 0.000000e+00 -1.000000e+00
      outer loop
         vertex 1.000000e-02 2.000000e-03 1.210000e-01
         vertex 5.000000e-03 2.100000e-02 1.210000e-01
         vertex 1.000000e-02 2.100000e-02 1.210000e-01
      endloop
   endfacet
   facet normal 0.000000e+00 1.000000e+00 -0.000000e+00
      outer loop
         vertex 5.000000e-03 2.000000e-03 0.000000e+00
         vertex 0.000000e+00 2.000000e-03 0.000000e+00
         vertex 5.000000e-03 2.000000e-03 2.999999e-03
      endloop
   endfacet
   facet normal 0.000000e+00 1.000000e+00 0.000000e+00
      outer loop
         vertex 5.000000e-03 2.000000e-03 2.999999e-03
         vertex 0.000000e+00 2.000000e-03 0.000000e+00
         vertex 0.000000e+00 2.000000e-03 9.400003e-03
      endloop
   endfacet
   facet normal 0.000000e+00 1.000000e+00 -0.000000e+00
      outer loop
         vertex 5.000000e-03 2.000000e-03 2.999999e-03
         vertex 0.000000e+00 2.000000e-03 9.400003e-03
         vertex 1.000000e-02 2.000000e-03 2.999999e-03
      endloop
   endfacet
   facet normal 0.000000e+00 1.000000e+00 0.000000e+00
      outer loop
         vertex 1.000000e-02 2.000000e-03 2.999999e-03
         vertex 0.000000e+00 2.000000e-03 9.400003e-03
         vertex 5.000000e-03 2.000000e-03 9.400003e-03
      endloop
   endfacet
   facet normal 0.000000e+00 1.000000e+00 -0.000000e+00
      outer loop
         vertex 1.000000e-02 2.000000e-03 2.999999e-03
         vertex 5.000000e-03 2.000000e-03 9.400003e-03
         vertex 1.000000e-02 2.000000e-03 1.210000e-01
      endloop
   endfacet
   facet normal 0.000000e+00 1.000000e+00 0.000000e+00
      outer loop
         vertex 1.000000e-02 2.000000e-03 1.210000e-01
         vertex 5.000000e-03 2.000000e-03 9.400003e-03
         vertex 5.000000e-03 2.000000e-03 1.146000e-01
      endloop
   endfacet
   facet normal 0.000000e+00 1.000000e+00 0.000000e+00
      outer loop
         vertex 1.000000e-02 2.000000e-03 1.210000e-01
         vertex 5.000000e-03 2.000000e-03 1.146000e-01
         vertex 5.000000e-03 2.000000e-03 1.210000e-01
      endloop
   endfacet
   facet normal 0.000000e+00 1.000000e+00 0.000000e+00
      outer loop
         vertex 5.000000e-03 2.000000e-03 1.210000e-01
         vertex 5.000000e-03 2.000000e-03 1.146000e-01
         vertex 0.000000e+00 2.000000e-03 1.146000e-01
      endloop
   endfacet
   facet normal 0.000000e+00 1.000000e+00 -0.000000e+00
      outer loop
         vertex 5.000000e-03 2.000000e-03 1.210000e-01
         vertex 0.000000e+00 2.000000e-03 1.146000e-01
         vertex 5.000000e-03 2.000000e-03 1.240000e-01
      endloop
   endfacet
   facet normal 0.000000e+00 1.000000e+00 0.000000e+00
      outer loop
         vertex 5.000000e-03 2.000000e-03 1.240000e-01
         vertex 0.000000e+00 2.000000e-03 1.146000e-01
         vertex 0.000000e+00 2.000000e-03 1.240000e-01
      endloop
   endfacet
   facet normal -1.000000e+00 0.000000e+00 0.000000e+00
      outer loop
         vertex 1.000000e-02 2.000000e-03 1.210000e-01
         vertex 1.000000e-02 2.100000e-02 1.210000e-01
         vertex 1.000000e-02 2.000000e-03 2.999999e-03
      endloop
   endfacet
   facet normal -1.000000e+00 0.000000e+00 0.000000e+00
      outer loop
         vertex 1.000000e-02 2.000000e-03 2.999999e-03
         vertex 1.000000e-02 2.100000e-02 1.210000e-01
         vertex 1.000000e-02 2.100000e-02 2.999999e-03
      endloop
   endfacet
   facet normal -0.000000e+00 0.000000e+00 1.000000e+00
      outer loop
         vertex 0.000000e+00 2.300000e-02 9.400003e-03
         vertex 0.000000e+00 2.100000e-02 9.400003e-03
         vertex 5.000000e-03 2.300000e-02 9.400003e-03
      endloop
   endfacet
   facet normal 0.000000e+00 0.000000e+00 1.000000e+00
      outer loop
         vertex 5.000000e-03 2.300000e-02 9.400003e-03
         vertex 0.000000e+00 2.100000e-02 9.400003e-03
         vertex 5.000000e-03 2.100000e-02 9.400003e-03
      endloop
   endfacet
   facet normal -1.000000e+00 0.000000e+00 0.000000e+00
      outer loop
         vertex 0.000000e+00 2.300000e-02 0.000000e+00
         vertex 0.000000e+00 2.100000e-02 0.000000e+00
         vertex 0.000000e+00 2.300000e-02 9.400003e-03
      endloop
   endfacet
   facet normal -1.000000e+00 -0.000000e+00 0.000000e+00
      outer loop
         vertex 0.000000e+00 2.300000e-02 9.400003e-03
         vertex 0.000000e+00 2.100000e-02 0.000000e+00
         vertex 0.000000e+00 2.100000e-02 9.400003e-03
      endloop
   endfacet
   facet normal 0.000000e+00 0.000000e+00 1.000000e+00
      outer loop
         vertex 0.000000e+00 2.000000e-03 9.400003e-03
         vertex 0.000000e+00 0.000000e+00 9.400003e-03
         vertex 5.000000e-03 2.000000e-03 9.400003e-03
      endloop
   endfacet
   facet normal 0.000000e+00 0.000000e+00 1.000000e+00
      outer loop
         vertex 5.000000e-03 2.000000e-03 9.400003e-03
         vertex 0.000000e+00 0.000000e+00 9.400003e-03
         vertex 5.000000e-03 0.000000e+00 9.400003e-03
      endloop
   endfacet
   facet normal -1.000000e+00 0.000000e+00 0.000000e+00
      outer loop
         vertex 0.000000e+00 2.000000e-03 0.000000e+00
         vertex 0.000000e+00 0.000000e+00 0.000000e+00
         vertex 0.000000e+00 2.000000e-03 9.400003e-03
      endloop
   endfacet
   facet normal -1.000000e+00 -0.000000e+00 0.000000e+00
      outer loop
         vertex 0.000000e+00 2.000000e-03 9.400003e-03
         vertex 0.000000e+00 0.000000e+00 0.000000e+00
         vertex 0.000000e+00 0.000000e+00 9.400003e-03
      endloop
   endfacet
   facet normal 0.000000e+00 0.000000e+00 -1.000000e+00
      outer loop
         vertex 0.000000e+00 2.100000e-02 1.146000e-01
         vertex 0.000000e+00 2.300000e-02 1.146000e-01
         vertex 5.000000e-03 2.100000e-02 1.146000e-01
      endloop
   endfacet
   facet normal 0.000000e+00 0.000000e+00 -1.000000e+00
      outer loop
         vertex 5.000000e-03 2.100000e-02 1.146000e-01
         vertex 0.000000e+00 2.300000e-02 1.146000e-01
         vertex 5.000000e-03 2.300000e-02 1.146000e-01
      endloop
   endfacet
   facet normal -1.000000e+00 0.000000e+00 0.000000e+00
      outer loop
         vertex 0.000000e+00 2.100000e-02 1.240000e-01
         vertex 0.000000e+00 2.300000e-02 1.240000e-01
         vertex 0.000000e+00 2.100000e-02 1.146000e-01
      endloop
   endfacet
   facet normal -1.000000e+00 0.000000e+00 0.000000e+00
      outer loop
         vertex 0.000000e+00 2.100000e-02 1.146000e-01
         vertex 0.000000e+00 2.300000e-02 1.240000e-01
         vertex 0.000000e+00 2.300000e-02 1.146000e-01
      endloop
   endfacet
   facet normal 0.000000e+00 0.000000e+00 -1.000000e+00
      outer loop
         vertex 0.000000e+00 0.000000e+00 1.146000e-01
         vertex 0.000000e+00 2.000000e-03 1.146000e-01
         vertex 5.000000e-03 0.000000e+00 1.146000e-01
      endloop
   endfacet
   facet normal 0.000000e+00 0.000000e+00 -1.000000e+00
      outer loop
         vertex 5.000000e-03 0.000000e+00 1.146000e-01
         vertex 0.000000e+00 2.000000e-03 1.146000e-01
         vertex 5.000000e-03 2.000000e-03 1.146000e-01
      endloop
   endfacet
   facet normal -1.000000e+00 0.000000e+00 0.000000e+00
      outer loop
         vertex 0.000000e+00 0.000000e+00 1.240000e-01
         vertex 0.000000e+00 2.000000e-03 1.240000e-01
         vertex 0.000000e+00 0.000000e+00 1.146000e-01
      endloop
   endfacet
   facet normal -1.000000e+00 0.000000e+00 0.000000e+00
      outer loop
         vertex 0.000000e+00 0.000000e+00 1.146000e-01
         vertex 0.000000e+00 2.000000e-03 1.240000e-01
         vertex 0.000000e+00 2.000000e-03 1.146000e-01
      endloop
   endfacet
endsolid